# AST/ASF file generated using VICON BodyLanguage
# -----------------------------------------------
:version 1.10
:name VICON
:units
  mass 1.0
  length 0.45
  angle deg
:documentation
   .ast/.asf automatically generated from VICON data using
   VICON BodyBuilder and BodyLanguage model FoxedUp or BRILLIANT.MOD
:root
   order TX TY TZ RX RY RZ
   axis XYZ
   position 0 0 0  
   orientation 0 0 0 
:bonedata
  begin
     id 1 
     name lhipjoint
     direction 0.682418 -0.694059 0.22932 
     length 2.25561 
     axis 0 0 0  XYZ
  end
  begin
     id 2 
     name lfemur
     direction 0.34202 -0.939693 0  
     length 6.96448  
     axis 0 0 20  XYZ
    dof rx ry rz
    limits (-160.0 20.0)
           (-70.0 70.0)
           (-60.0 70.0)
  end
  begin
     id 3 
     name ltibia
     direction 0.34202 -0.939693 0   
     length 6.88553   
     axis 0 0 20   XYZ
    dof rx
    limits (-10.0 170.0)
  end
  begin
     id 4 
     name lfoot
     direction 0.0723587 -0.198804 0.977364   
     length 1.88518   
     axis -90 7.62852e-016 20   XYZ
    dof rx rz
    limits (-45.0 90.0)
           (-70.0 20.0)
  end
  begin
     id 5 
     name ltoes
     direction 1.53558e-011 -4.21962e-011 1   
     length 0.952124   
     axis -90 7.62852e-016 20   XYZ
    dof rx
    limits (-90.0 20.0)
  end
  begin
     id 6 
     name rhipjoint
     direction -0.657603 -0.71533 0.236348   
     length 2.18854  
     axis 0 0 0  XYZ 
  end
  begin
     id 7 
     name rfemur
     direction -0.34202 -0.939693 0   
     length 6.86686   
     axis 0 0 -20   XYZ
    dof rx ry rz
    limits (-160.0 20.0)
           (-70.0 70.0)
           (-70.0 60.0)
  end
  begin
     id 8 
     name rtibia
     direction -0.34202 -0.939693 0   
     length 6.59503   
     axis 0 0 -20   XYZ
    dof rx
    limits (-10.0 170.0)
 end
 begin
     id 9 
     name rfoot
     direction -0.101977 -0.280179 0.954516   
     length 1.93723  
     axis -90 -7.62852e-016 -20   XYZ
    dof rx rz
    limits (-45.0 90.0)
           (-20.0 70.0)
  end
  begin
     id 10 
     name rtoes
     direction -1.53564e-011 -4.21897e-011 1   
     length 0.970315   
     axis -90 -7.62852e-016 -20   XYZ
    dof rx
    limits (-90.0 20.0)
  end
  begin
     id 11 
     name lowerback
     direction -0.0339559 0.999421 -0.00235966   
     length 1.88543   
     axis 0 0 0   XYZ
    dof rx ry rz
    limits (-20.0 45.0)
           (-30.0 30.0)
           (-30.0 30.0)
  end
  begin
     id 12 
     name upperback
     direction 0.00401003 0.999739 0.0224689   
     length 1.8856   
     axis 0 0 0   XYZ
    dof rx ry rz
    limits (-20.0 45.0)
           (-30.0 30.0)
           (-30.0 30.0)
  end
  begin
     id 13 
     name thorax
     direction 0.0198619 0.999546 0.0226536   
     length 1.88352   
     axis 0 0 0   XYZ
    dof rx ry rz
    limits (-20.0 45.0)
           (-30.0 30.0)
           (-30.0 30.0)
  end
  begin
     id 14 
     name lowerneck
     direction -0.0461848 0.998632 0.0245198   
     length 1.34895   
     axis 0 0 0   XYZ
    dof rx ry rz
    limits (-20.0 45.0)
           (-30.0 30.0)
           (-30.0 30.0)
  end
  begin
     id 15 
     name upperneck
     direction -0.0180627 0.994724 -0.100984   
     length 1.35214   
     axis 0 0 0   XYZ
    dof rx ry rz
    limits (-20.0 45.0)
           (-30.0 30.0)
           (-30.0 30.0)
  end
  begin
     id 16
     name head
     direction -0.00374772 0.999293 -0.037403  
     length 1.3568  
     axis 0 0 0   XYZ
    dof rx ry rz
    limits (-20.0 45.0)
           (-30.0 30.0)
           (-30.0 30.0)
  end
  begin
     id 17 
     name lclavicle
     direction 0.971773 0.191119 0.138311  
     length 2.84954  
     axis 0 0 0   XYZ
    dof ry rz
    limits (-20.0 10.0)
           (0.0 20.0)
  end
  begin
     id 18 
     name lhumerus
     direction 1 -4.4897e-011 -2.43761e-027   
     length 4.40919   
     axis 180 -30 -90   XYZ
    dof rx ry rz
    limits (-60.0 90.0)
           (-90.0 90.0)
           (-90.0 90.0)
  end
  begin
     id 19
     name lradius
     direction 1 -4.4896e-011 -9.1621e-027   
     length 3.03857   
     axis 180 -30 -90   XYZ
    dof rx
    limits (-10.0 170.0)
  end
  begin
     id 20
     name lwrist
     direction 1 -4.4896e-011 -1.41363e-026   
     length 1.51928   
     axis 1.07133e-014 90 90   XYZ
    dof ry
    limits (-180.0 0.0)
 end
  begin
     id 21 
     name lhand
     direction 1 -4.48978e-011 -2.82725e-026   
     length 0.523208   
     axis 1.80403e-014 90 90   XYZ
    dof rx rz
    limits (-90.0 90.0)
           (-45.0 45.0)
  end
  begin
     id 22 
     name lfingers
     direction 1 -4.48977e-011 -5.6545e-026   
     length 0.421824   
     axis 3.60806e-014 90 90   XYZ
    dof rx
    limits (0.0 90.0)
  end
  begin
     id 23
     name lthumb
     direction 0.707107 -6.34962e-011 0.707107   
     length 0.605657   
     axis -90 45 2.85299e-015   XYZ
    dof rx rz
    limits (-45.0 45.0)
           (-45.0 45.0)
  end
  begin
     id 24 
     name rclavicle
     direction -0.957247 0.24311 0.156766   
     length 3.12406  
     axis 0 0 0   XYZ 
    dof ry rz
    limits (-10.0 20.0)
           (-20.0 0.0)
  end
  begin
     id 25 
     name rhumerus
     direction -1 -4.48964e-011 -1.70632e-027  
     length 4.61969   
     axis 180 30 90   XYZ
    dof rx ry rz
    limits (-90.0 60.0)
           (-90.0 90.0)
           (-90.0 90.0)
  end
  begin
     id 26 
     name rradius
     direction -1 -4.48966e-011 -6.60395e-027   
     length 3.09382   
     axis 180 30 90   XYZ
    dof rx
    limits (-10.0 170.0)
  end
  begin
     id 27 
     name rwrist
     direction -1 -4.48963e-011 -1.41363e-026   
     length 1.54691   
     axis 1.07133e-014 -90 -90   XYZ
    dof ry
    limits (-180.0 0.0)
  end
  begin
     id 28
     name rhand
     direction -1 -4.49013e-011 -2.82725e-026   
     length 0.500896   
     axis 1.80403e-014 -90 -90   XYZ
    dof rx rz
    limits (-90.0 90.0)
           (-45.0 45.0)
  end
  begin
     id 29
     name rfingers
     direction -1 -4.48902e-011 -5.6545e-026   
     length 0.403835   
     axis 3.60806e-014 -90 -90   XYZ
    dof rx
    limits (0.0 90.0)
  end
  begin
     id 30
     name rthumb
     direction -0.707107 -6.34953e-011 0.707107   
     length 0.579829   
     axis -90 -45 -2.85299e-015   XYZ
    dof rx rz
    limits (-45.0 45.0)
           (-45.0 45.0)
  end
:hierarchy
  begin
    root lhipjoint rhipjoint lowerback
    lhipjoint lfemur
    lfemur ltibia
    ltibia lfoot
    lfoot ltoes
    rhipjoint rfemur
    rfemur rtibia
    rtibia rfoot
    rfoot rtoes
    lowerback upperback
    upperback thorax
    thorax lowerneck lclavicle rclavicle
    lowerneck upperneck
    upperneck head
    lclavicle lhumerus
    lhumerus lradius
    lradius lwrist
    lwrist lhand lthumb
    lhand lfingers
    rclavicle rhumerus
    rhumerus rradius
    rradius rwrist
    rwrist rhand rthumb
    rhand rfingers
  end

#!OML:ASF E:\madness\Project 1\Capture day 1\Session 1\Female1.ASF
:FULLY-SPECIFIED
:DEGREES
171
root 7.09117 16.4885 0.542593 7.2402 -21.3115 3.52948
lowerback -9.2855 2.64157 -2.09285
upperback -5.81181 3.62019 -0.427809
thorax -0.934575 1.8439 1.02571
lowerneck 4.45403 12.7829 9.31106
upperneck 13.6274 18.4717 -8.84163
head 5.08369 9.22493 -3.38352
rclavicle -5.35228e-014 -5.1684e-015
rhumerus -46.6009 -10.5857 -78.8088
rradius 32.9523
rwrist 6.5335
rhand -9.72317 -48.4454
rfingers 7.12502
rthumb 16.2502 -77.7844
lclavicle -5.35228e-014 -5.1684e-015
lhumerus -53.0133 10.9264 77.4559
lradius 43.0975
lwrist -12.7195
lhand -20.0084 -13.6763
lfingers 7.12502
lthumb 6.33167 16.209
rfemur 8.05244 -18.7504 21.6087
rtibia 6.81917
rfoot -25.2133 -33.9342
rtoes 40.0468
lfemur -15.832 -20.8968 -19.4399
ltibia 11.9302
lfoot -6.5966 -2.00913
ltoes 13.5488
172
root 7.09184 16.4883 0.581004 7.27921 -21.2875 3.52513
lowerback -9.36737 2.884 -2.0572
upperback -5.84094 3.94098 -0.606903
thorax -0.915631 2.00065 0.850463
lowerneck 5.1672 12.518 9.59028
upperneck 12.5776 18.1313 -9.2858
head 4.6753 9.09188 -3.66097
rclavicle 5.91136e-014 9.14409e-015
rhumerus -46.8162 -10.731 -78.9581
rradius 33.3831
rwrist 6.24075
rhand -10.8542 -48.9637
rfingers 7.12502
rthumb 15.161 -78.3883
lclavicle 5.91136e-014 9.14409e-015
lhumerus -52.9926 10.0241 77.7164
lradius 43.4476
lwrist -12.3869
lhand -20.0805 -13.3236
lfingers 7.12502
lthumb 6.26208 16.5638
rfemur 8.08886 -18.7096 21.5639
rtibia 6.89896
rfoot -25.2711 -34.044
rtoes 39.9155
lfemur -15.7529 -20.7189 -19.5662
ltibia 11.9821
lfoot -6.6507 -2.18309
ltoes 14.2478
173
root 7.09623 16.4887 0.620929 7.34334 -21.2746 3.5725
lowerback -9.51284 3.05953 -2.0463
upperback -5.87348 4.1756 -0.6585
thorax -0.872642 2.1167 0.817397
lowerneck 5.50009 12.4609 9.02166
upperneck 12.1394 17.9869 -8.99671
head 4.39609 9.02421 -3.54765
rclavicle 5.31252e-014 -3.37934e-015
rhumerus -46.9571 -10.6468 -78.8712
rradius 33.7759
rwrist 6.21684
rhand -10.4784 -48.8201
rfingers 7.12502
rthumb 15.5229 -78.217
lclavicle 5.31252e-014 -3.37934e-015
lhumerus -53.0685 9.45722 78.1127
lradius 43.8201
lwrist -11.8623
lhand -19.8112 -13.3308
lfingers 7.12502
lthumb 6.52208 16.5487
rfemur 8.10438 -18.661 21.4488
rtibia 6.93216
rfoot -25.2229 -34.1142
rtoes 40.1438
lfemur -15.7155 -20.4398 -19.7715
ltibia 12.0413
lfoot -6.6992 -2.45335
ltoes 15.2167
174
root 7.10473 16.4887 0.658204 7.31545 -21.1879 3.65902
lowerback -9.55242 3.03033 -2.15513
upperback -5.87376 4.14585 -0.557596
thorax -0.866325 2.1063 0.981252
lowerneck 5.4345 12.7007 8.21231
upperneck 12.3688 18.2125 -8.232
head 4.358 9.12271 -3.18957
rclavicle -3.82164e-014 -7.95139e-016
rhumerus -46.869 -10.1674 -78.8798
rradius 34.0342
rwrist 6.18801
rhand -9.70281 -48.3159
rfingers 7.12502
rthumb 16.2698 -77.6533
lclavicle -3.82164e-014 -7.95139e-016
lhumerus -53.3669 9.62059 78.2391
lradius 44.2853
lwrist -11.6778
lhand -19.9392 -13.0195
lfingers 7.12502
lthumb 6.39847 16.8639
rfemur 8.19831 -18.6924 21.2636
rtibia 6.98762
rfoot -25.1165 -34.1408
rtoes 40.4058
lfemur -15.5963 -20.2352 -20.0376
ltibia 12.0811
lfoot -6.92245 -2.75076
ltoes 15.7975
175
root 7.1138 16.4893 0.693828 7.32073 -21.0721 3.67506
lowerback -9.56226 3.01546 -2.15195
upperback -5.88703 4.12591 -0.538901
thorax -0.875318 2.09678 0.997165
lowerneck 5.61268 13.1345 7.71121
upperneck 12.3491 18.7109 -7.52323
head 4.25759 9.37694 -2.90002
rclavicle -2.36554e-014 -8.74653e-015
rhumerus -46.8644 -9.61681 -79.1515
rradius 34.4319
rwrist 5.97882
rhand -9.76692 -48.2987
rfingers 7.12502
rthumb 16.2081 -77.6411
lclavicle -2.36554e-014 -8.74653e-015
lhumerus -53.6166 9.27743 78.4562
lradius 44.8242
lwrist -11.0695
lhand -20.5837 -12.293
lfingers 7.12502
lthumb 5.77633 17.6083
rfemur 8.25855 -18.7461 21.165
rtibia 7.08853
rfoot -25.1033 -34.1728
rtoes 40.399
lfemur -15.4856 -20.1289 -20.204
ltibia 12.0768
lfoot -7.17833 -2.97513
ltoes 15.4556
176
root 7.1208 16.4904 0.729668 7.39369 -21.0416 3.60826
lowerback -9.62901 3.15152 -2.00678
upperback -5.94345 4.29557 -0.610256
thorax -0.886643 2.17713 0.859072
lowerneck 5.63637 13.1639 7.66461
upperneck 12.5573 18.7205 -7.13276
head 4.27878 9.39139 -2.77615
rclavicle 2.98177e-016 6.55989e-015
rhumerus -47.0569 -9.70534 -79.2425
rradius 34.901
rwrist 6.16018
rhand -9.72311 -48.2924
rfingers 7.12502
rthumb 16.2503 -77.6314
lclavicle 2.98177e-016 6.55989e-015
lhumerus -53.7448 8.29947 78.816
lradius 45.3081
lwrist -10.1947
lhand -20.441 -12.0936
lfingers 7.12502
lthumb 5.91404 17.8039
rfemur 8.25596 -18.7065 21.1519
rtibia 7.19941
rfoot -24.9515 -34.2683
rtoes 40.1848
lfemur -15.4009 -20.1866 -20.2228
ltibia 12.049
lfoot -7.25445 -2.93904
ltoes 15.4301
177
root 7.12525 16.49 0.763191 7.33245 -21.0707 3.56543
lowerback -9.52846 3.28334 -1.95246
upperback -5.97875 4.46371 -0.638499
thorax -0.976689 2.26061 0.805734
lowerneck 5.57842 13.0446 8.00008
upperneck 12.8379 18.5981 -7.21597
head 4.4028 9.33814 -2.83755
rclavicle -5.96354e-014 7.7526e-015
rhumerus -47.2672 -9.82361 -79.2374
rradius 35.4054
rwrist 6.51157
rhand -9.35652 -48.1843
rfingers 7.12502
rthumb 16.6032 -77.494
lclavicle -5.96354e-014 7.7526e-015
lhumerus -53.897 7.87635 78.872
lradius 45.6776
lwrist -10.0935
lhand -19.637 -12.7868
lfingers 7.12502
lthumb 6.69027 17.0875
rfemur 8.37373 -18.6142 21.0829
rtibia 7.34318
rfoot -24.7483 -34.397
rtoes 39.9427
lfemur -15.1503 -20.2051 -20.3091
ltibia 12.0161
lfoot -7.30065 -2.92138
ltoes 15.9212
178
root 7.1278 16.4878 0.797112 7.18331 -21.1271 3.5686
lowerback -9.36853 3.35614 -2.01951
upperback -5.96639 4.56259 -0.599751
thorax -1.06261 2.31362 0.880315
lowerneck 5.57027 13.0013 8.15403
upperneck 12.8793 18.5595 -7.3092
head 4.43623 9.32232 -2.88496
rclavicle -3.66758e-014 3.37934e-015
rhumerus -47.3868 -9.34869 -79.4087
rradius 35.971
rwrist 6.47442
rhand -9.24853 -48.4615
rfingers 7.12502
rthumb 16.7072 -77.7626
lclavicle -3.66758e-014 3.37934e-015
lhumerus -54.0311 8.15367 78.7343
lradius 45.9295
lwrist -10.5517
lhand -19.622 -13.025
lfingers 7.12502
lthumb 6.70476 16.8488
rfemur 8.54331 -18.5031 20.9598
rtibia 7.5625
rfoot -25.005 -34.3364
rtoes 40.395
lfemur -14.7963 -20.1601 -20.488
ltibia 11.9624
lfoot -7.42113 -2.92231
ltoes 15.4394
179
root 7.13572 16.487 0.832617 7.19545 -21.1614 3.59214
lowerback -9.41291 3.4498 -2.03322
upperback -5.96758 4.68881 -0.601591
thorax -1.04458 2.37704 0.898625
lowerneck 5.53968 12.9769 8.08503
upperneck 12.8641 18.516 -7.25582
head 4.42155 9.29971 -2.86168
rclavicle -2.26118e-014 1.55052e-014
rhumerus -47.4393 -8.81151 -79.6281
rradius 36.5367
rwrist 6.22721
rhand -10.0881 -49.1352
rfingers 7.12502
rthumb 15.8988 -78.5025
lclavicle -2.26118e-014 1.55052e-014
lhumerus -54.0896 8.30958 78.6551
lradius 46.1873
lwrist -10.8996
lhand -19.6745 -13.0677
lfingers 7.12502
lthumb 6.65403 16.8077
rfemur 8.52579 -18.4142 20.8364
rtibia 7.74266
rfoot -25.3157 -34.242
rtoes 41.0207
lfemur -14.673 -20.2035 -20.6199
ltibia 11.9356
lfoot -7.4776 -2.84263
ltoes 15.1883
180
root 7.14924 16.4896 0.865216 7.38796 -21.1747 3.5688
lowerback -9.5621 3.48629 -1.93127
upperback -5.98684 4.73205 -0.653898
thorax -0.971552 2.39429 0.801454
lowerneck 5.21079 13.0785 8.02319
upperneck 13.1002 18.6274 -7.05476
head 4.53191 9.34726 -2.75521
rclavicle 3.90115e-014 6.55989e-015
rhumerus -47.4923 -8.2502 -80.008
rradius 37.2816
rwrist 5.83801
rhand -12.1117 -50.4835
rfingers 7.12502
rthumb 13.9494 -79.9955
lclavicle 3.90115e-014 6.55989e-015
lhumerus -54.1829 8.00064 78.6306
lradius 46.6471
lwrist -10.6427
lhand -18.9859 -13.6135
lfingers 7.12502
lthumb 7.31874 16.2399
rfemur 8.3117 -18.3407 20.8051
rtibia 7.87135
rfoot -25.1492 -34.4112
rtoes 40.7949
lfemur -14.7772 -20.2737 -20.6388
ltibia 11.931
lfoot -7.4512 -2.78047
ltoes 15.8461
181
root 7.15364 16.4927 0.899118 7.52089 -21.2644 3.46386
lowerback -9.72699 3.45513 -1.92665
upperback -5.94956 4.69396 -0.632757
thorax -0.84321 2.37385 0.830356
lowerneck 4.96487 13.2368 8.06244
upperneck 13.1913 18.8161 -6.89542
head 4.60388 9.43955 -2.67918
rclavicle 1.80397e-014 8.54774e-015
rhumerus -47.5927 -7.54449 -80.4709
rradius 38.1535
rwrist 5.31321
rhand -12.5451 -50.5432
rfingers 7.12502
rthumb 13.5317 -80.0836
lclavicle 1.80397e-014 8.54774e-015
lhumerus -54.3602 7.72333 78.5522
lradius 47.1716
lwrist -10.1495
lhand -18.5664 -14.0953
lfingers 7.12502
lthumb 7.72365 15.7437
rfemur 8.18638 -18.183 20.8755
rtibia 8.04797
rfoot -24.7977 -34.6626
rtoes 40.084
lfemur -14.7187 -20.1455 -20.6219
ltibia 11.8627
lfoot -7.49536 -2.83012
ltoes 16.1362
182
root 7.15255 16.4953 0.933526 7.55997 -21.3402 3.44335
lowerback -9.87176 3.40388 -2.09855
upperback -5.9234 4.6424 -0.555155
thorax -0.756579 2.35254 1.01148
lowerneck 4.97987 13.3122 8.14569
upperneck 13.1264 18.9216 -6.93547
head 4.6017 9.49456 -2.6972
rclavicle 4.85532e-014 7.55382e-015
rhumerus -47.6247 -6.96161 -80.7367
rradius 38.7562
rwrist 5.10069
rhand -9.70247 -47.5001
rfingers 7.12502
rthumb 16.2701 -76.8375
lclavicle 4.85532e-014 7.55382e-015
lhumerus -54.5708 7.76264 78.4759
lradius 47.6407
lwrist -9.80691
lhand -18.5879 -14.1316
lfingers 7.12502
lthumb 7.70292 15.7081
rfemur 8.1834 -18.0454 20.8481
rtibia 8.18869
rfoot -24.7022 -34.7353
rtoes 39.8974
lfemur -14.5644 -19.8369 -20.726
ltibia 11.7576
lfoot -7.60436 -3.06493
ltoes 16.429
183
root 7.15483 16.4962 0.965784 7.55445 -21.3901 3.53189
lowerback -9.92129 3.36983 -2.26374
upperback -5.95311 4.61032 -0.494344
thorax -0.778471 2.34198 1.16448
lowerneck 5.08252 13.3155 8.02133
upperneck 13.1007 18.9296 -6.95162
head 4.56779 9.49578 -2.6943
rclavicle -3.40916e-014 -6.75868e-015
rhumerus -47.6256 -6.37939 -80.9335
rradius 39.2493
rwrist 4.83862
rhand -8.52288 -47.4989
rfingers 7.12502
rthumb 17.4057 -76.7396
lclavicle -3.40916e-014 -6.75868e-015
lhumerus -54.8475 7.73686 78.5825
lradius 48.0935
lwrist -9.44572
lhand -18.986 -13.5903
lfingers 7.12502
lthumb 7.31865 16.2631
rfemur 8.27632 -17.9392 20.6681
rtibia 8.15626
rfoot -24.7097 -34.7877
rtoes 40.0155
lfemur -14.4346 -19.7249 -20.9202
ltibia 11.704
lfoot -7.72683 -3.14114
ltoes 16.6704
